{"title":"Dragon.Hunter.2008.SWESUB.DVDRip.XviD.-Zen_Bud","uid":5682089,"size":736880932,"categoryP":"video","categoryS":"movies","magnet":"?xt=urn:btih:ac0ec772a009b39f98335a563c9925d1d1026ecb&amp;dn=Dragon.Hunter.2008.SWESUB.DVDRip.XviD.-Zen_Bud&amp;tr=udp%3A%2F%2Ftracker.openbittorrent.com%3A80&amp;tr=udp%3A%2F%2Fopen.demonii.com%3A1337&amp;tr=udp%3A%2F%2Ftracker.coppersurfer.tk%3A6969&amp;tr=udp%3A%2F%2Fexodus.desync.com%3A6969","seeders":0,"leechers":1,"uploader":"Zen_Bud","files":1,"time":1278857590,"description":"General\nComplete name                    : Dragon.Hunter.2008.avi\nFormat                           : AVI\nFile size                        : 703 MiB\nDuration                         : 1h 30mn\nOverall bit rate                 : 1 087 Kbps\n\nVideo\nID                               : 0\nFormat                           : MPEG-4 Visual\nCodec ID/Hint                    : XviD\nDuration                         : 1h 30mn\nBit rate                         : 962 Kbps\nWidth                            : 718 pixels\nHeight                           : 436 pixels\nDisplay aspect ratio             : 2.35:1\nStream size                      : 622 MiB (88%)\nWriting library                  : XviD 1.1.2 (UTC 2006-11-01)\n\nAudio\n\nFormat                           : MPEG Audio\nCodec ID/Hint                    : MP3\nDuration                         : 1h 30mn\nBit rate                         : 112 Kbps\nChannel(s)                       : 2 channels\nSampling rate                    : 48.0 KHz\nStream size                      : 72.4 MiB (10%)\nWriting library                  : LAME3.98\n\n","torrent":{"xt":"urn:btih:ac0ec772a009b39f98335a563c9925d1d1026ecb","amp;dn":"Dragon.Hunter.2008.SWESUB.DVDRip.XviD.-Zen_Bud","amp;tr":["udp%3A%2F%2Ftracker.openbittorrent.com%3A80","udp%3A%2F%2Fopen.demonii.com%3A1337","udp%3A%2F%2Ftracker.coppersurfer.tk%3A6969","udp%3A%2F%2Fexodus.desync.com%3A6969"],"infoHash":"ac0ec772a009b39f98335a563c9925d1d1026ecb","infoHashBuffer":{"type":"Buffer","data":[172,14,199,114,160,9,179,159,152,51,90,86,60,153,37,209,209,2,110,203]},"announce":[],"urlList":[]}}